<?xml version="1.0" encoding="utf-8"?>
<!-- Generator: Adobe Illustrator 17.1.0, SVG Export Plug-In . SVG Version: 6.00 Build 0)  -->
<!DOCTYPE svg PUBLIC "-//W3C//DTD SVG 1.1//EN" "http://www.w3.org/Graphics/SVG/1.1/DTD/svg11.dtd">
<svg version="1.1" id="Layer_1" xmlns="http://www.w3.org/2000/svg" xmlns:xlink="http://www.w3.org/1999/xlink" x="0px" y="0px"
	 width="561.4px" height="127.8px" viewBox="0 0 561.4 127.8" enable-background="new 0 0 561.4 127.8" xml:space="preserve">
<g>
	<g>
		<rect x="234.6" y="63.8" fill="#004B85" width="118.4" height="51.5"/>
		<rect x="218.6" y="9.3" fill="#004B85" width="176.9" height="50.3"/>
		<path fill="#004B85" d="M359.6,86.6c0.3,0,0.5,0,0.6-0.1c0.1-0.1,0.2-0.2,0.2-0.4c0-0.3-0.1-0.4-0.2-0.5c-0.1-0.1-0.3-0.1-0.6-0.1
			v-0.3c0.4,0,0.8,0.1,1,0.2c0.3,0.2,0.4,0.4,0.4,0.7c0,0.2-0.1,0.4-0.3,0.6c-0.1,0.2-0.3,0.3-0.5,0.3l0.7,1.6h-0.5l-0.7-1.5V86.6
			L359.6,86.6z M359.6,89.8c0.3,0,0.7-0.1,1-0.2c0.3-0.2,0.7-0.4,1-0.6c0.2-0.3,0.5-0.6,0.6-1c0.1-0.3,0.2-0.7,0.2-1.1
			c0-0.4-0.1-0.8-0.2-1.1c-0.2-0.4-0.4-0.7-0.6-0.9c-0.3-0.3-0.6-0.5-1-0.7c-0.3-0.1-0.6-0.2-1-0.2v0.3c0.3,0,0.6,0.1,0.8,0.2
			c0.3,0.1,0.6,0.3,0.9,0.5c0.2,0.3,0.4,0.5,0.5,0.8c0.1,0.3,0.2,0.7,0.2,1c0,0.4,0,0.7-0.2,1c-0.1,0.3-0.3,0.6-0.5,0.8
			c-0.3,0.3-0.5,0.5-0.9,0.6c-0.3,0.1-0.5,0.2-0.8,0.2V89.8z M359.4,85.5h-0.6v1.2h0.6c0.1,0,0.1,0,0.2,0V87v0h-0.8v1.5h-0.5v-3.4
			h1.2c0,0,0.1,0,0.1,0v0.3C359.5,85.5,359.5,85.5,359.4,85.5L359.4,85.5z M359.6,83.9v0.3c0,0-0.1,0-0.2,0c-0.3,0-0.7,0-1,0.2
			c-0.3,0.2-0.6,0.3-0.8,0.6c-0.3,0.3-0.5,0.5-0.6,0.8c-0.1,0.3-0.2,0.7-0.2,1c0,0.3,0.1,0.7,0.2,1c0.1,0.3,0.3,0.6,0.6,0.8
			c0.3,0.3,0.5,0.5,0.8,0.6c0.3,0.1,0.6,0.2,1,0.2c0.1,0,0.1,0,0.2,0v0.3c0,0-0.1,0-0.2,0c-0.4,0-0.8,0-1.1-0.2
			c-0.4-0.1-0.7-0.4-1-0.6c-0.3-0.3-0.5-0.6-0.6-1c-0.1-0.3-0.2-0.7-0.2-1.1c0-0.4,0.1-0.8,0.2-1.1c0.2-0.3,0.4-0.7,0.7-1
			c0.3-0.2,0.5-0.5,0.9-0.6c0.3-0.1,0.7-0.2,1.1-0.2C359.5,83.9,359.5,83.9,359.6,83.9z"/>
	</g>
	<g>
		<path fill="#FFFFFF" d="M261.9,19.5c-0.1,0-0.2,0-0.3,0c-2.4,0.1-4.3,0.8-5.4,2.2c-1.3,1.4-1.9,3.7-1.9,6.6v2.4h5.9v-1.4
			c0-1.4,0.1-2.3,0.3-2.7c0.3-0.5,0.7-0.7,1.1-0.7c0.1,0,0.1,0,0.1,0c0.6,0,0.9,0.2,1.1,0.7c0.2,0.4,0.3,1.2,0.3,2.7v1.1
			c-0.5,0.3-1,0.6-1.5,0.9c-3.4,1.9-5.5,3.5-6.4,4.8c-1,1.4-1.5,3.6-1.5,6.3v5.2c0,2.7,0.5,4.7,1.4,6.2c0.9,1.4,2.4,2.2,4.2,2.2
			c0.8,0,1.6-0.3,2.3-0.7c0.8-0.5,1.3-1,1.9-1.9v1.9h6.2V29.7c0-3.5-0.7-6.2-1.9-7.7C266.5,20.4,264.5,19.5,261.9,19.5z M263.1,45.7
			c0,1.6-0.1,2.7-0.3,3c-0.2,0.5-0.6,0.7-1.1,0.7c0,0,0,0-0.1,0c-0.5,0-0.9-0.2-1.1-0.7c-0.2-0.4-0.3-1.4-0.3-3v-1.5v-0.5
			c0-2,0.2-3.4,0.7-4.3c0.2-0.5,0.5-0.9,0.8-1.2c0.5-0.5,0.9-0.9,1.5-1.3V45.7z M280.3,19.8c-2.8,0-4.9,0.9-6.2,2.6
			c-1.2,1.6-1.8,4.6-1.8,8.6v13.7c0,4.2,0.6,7,1.8,8.7c1.2,1.6,3.2,2.5,6.2,2.5c2.8,0,4.9-0.9,6.2-2.5c1.2-1.7,1.8-4.6,1.8-8.7v-3.5
			h-6.4v4.6c0,1.6-0.2,2.7-0.4,3c-0.2,0.4-0.6,0.6-1.1,0.6c-0.6,0-0.9-0.2-1.1-0.6c-0.2-0.4-0.3-1.4-0.3-3V29.8c0-1.6,0.1-2.6,0.3-3
			c0.2-0.4,0.6-0.6,1.1-0.6c0.6,0,0.9,0.2,1.1,0.6c0.2,0.5,0.4,1.4,0.4,3v4.6h6.4V31c0-4.1-0.6-7-1.8-8.6
			C285.2,20.6,283.1,19.8,280.3,19.8z M301.1,20.4c-0.9,0-1.5,0.2-2.2,0.5c-0.7,0.3-1.2,0.8-1.7,1.4l-0.1-13h-6.3v46h6.4V30.1
			c0-1.5,0.1-2.6,0.3-2.9c0.2-0.4,0.6-0.6,1.1-0.6c0.6,0,0.9,0.2,1.1,0.6c0.2,0.4,0.3,1.4,0.3,2.9v25.1h6.4V30.9
			c0-3.9-0.4-6.6-1.2-8.2C304.5,21.1,303.1,20.4,301.1,20.4z M309.5,17.1h6.4V9.3h-6.4V17.1z M309.5,55.3h6.4V20.6h-6.4V55.3z
			 M329,19.7c-0.9,0-1.7,0.2-2.5,0.6c-0.7,0.4-1.3,1-1.9,1.8v-1.9h-6.4v35.1h6.8V29.7c0-1.6,0.1-2.7,0.3-3c0.3-0.5,0.7-0.7,1.2-0.7
			c0.6,0,1,0.2,1.2,0.7c0.2,0.4,0.3,1.4,0.3,3v25.5h6.9V30.4c0-4-0.5-6.7-1.4-8.3C332.7,20.5,331.2,19.7,329,19.7z M344.7,19.9
			c-2.9,0-4.9,0.8-6.2,2.5c-1.2,1.7-1.8,4.6-1.8,8.7v13.6c0,4.2,0.6,7,1.8,8.7c1.2,1.6,3.2,2.5,6.2,2.5c2.8,0,4.9-0.9,6.1-2.5
			c1.2-1.7,1.8-4.6,1.8-8.7v-3.5h-6.4v4.6c0,1.6-0.1,2.6-0.4,3c-0.2,0.4-0.6,0.7-1.1,0.7c-0.7,0-1-0.3-1.2-0.7
			c-0.3-0.4-0.4-1.4-0.4-3v-6.6h1.6h7.9v-8.1c0-4.2-0.6-7-1.8-8.7C349.6,20.6,347.5,19.9,344.7,19.9z M346.2,32.8h-1.5H343v-2.7
			c0-1.7,0.1-2.8,0.4-3.2c0.2-0.5,0.6-0.7,1.2-0.7c0.6,0,0.9,0.2,1.1,0.7c0.3,0.4,0.4,1.5,0.4,3.2V32.8z M365.6,20.1
			c-0.9,0-1.7,0.2-2.4,0.6c-0.8,0.4-1.3,0.9-1.9,1.7v-1.9h-6.3v34.8h6.6V29.9c0-1.6,0.1-2.6,0.3-3c0.3-0.4,0.7-0.6,1.2-0.6
			c0.6,0,0.9,0.2,1.1,0.6c0.2,0.5,0.3,1.4,0.3,3V37h6.6v-6.4c0-4-0.5-6.7-1.3-8.3C369.1,20.8,367.6,20.1,365.6,20.1z M383.2,19v13.6
			c0,3.4-0.1,6.5-0.4,9.6c-0.3,3-0.7,5.7-1.1,8.2c-0.6-2.6-0.9-5.3-1.1-8.2c-0.3-3-0.4-6.2-0.4-9.5V19h-6.8v13.2
			c0,4.3,0.4,8.2,1,11.9c0.8,3.6,1.9,7.2,3.5,10.7h-4.6V60h10.6c2.1-4.3,3.7-8.4,4.6-12.7c0.9-4.2,1.4-9.2,1.4-15.1V19H383.2z
			 M239.3,14.8c-0.8,2.1-1.2,2.8-1.8,5.1c-0.6-2.5-1.3-3.1-2.1-5.2c-0.9-2-1.7-3.8-2.7-5.4h-9.4v46h7V20.4c1.2,2.1,2.1,4.3,2.7,6.6
			c0.6,2.4,0.9,5.6,0.9,9.8v18.5h6.9V39.3v-2.6c0-4.2,0.3-7.4,0.9-9.8c0.6-2.4,1.4-4.6,2.7-6.6v34.9h7v-46H242
			C241,10.9,240.1,12.7,239.3,14.8z"/>
		<path fill="#FFFFFF" d="M265.4,63.8h-24.9v8.3h8.7v37.4h7.3V72.1h8.9V63.8z M269.5,74.3c-0.9,0-1.6,0.2-2.4,0.6
			c-0.7,0.4-1.2,0.9-1.8,1.7v-1.9h-6.1v34.8h6.4V84.2c0-1.6,0.1-2.6,0.3-3c0.3-0.4,0.7-0.6,1.1-0.6c0.6,0,0.9,0.2,1.2,0.6
			c0.2,0.4,0.3,1.4,0.3,3v7.1h6.4v-6.4c0-3.9-0.5-6.7-1.3-8.2C272.9,75.1,271.5,74.3,269.5,74.3z M346.6,76.6
			c-0.9-1.5-2.3-2.4-4.3-2.4c-0.9,0-1.7,0.2-2.4,0.6c-0.7,0.4-1.3,0.9-1.8,1.7v-1.8h-6.1v34.8h6.4V84.2c0-1.6,0.1-2.7,0.3-3
			c0.2-0.5,0.6-0.7,1.1-0.7c0.6,0,0.9,0.2,1.1,0.7c0.2,0.4,0.3,1.4,0.3,3v7.1h6.4v-6.4C347.9,80.9,347.5,78.1,346.6,76.6z
			 M321.4,74.1c-3,0-5.1,0.9-6.4,2.5c-1.2,1.7-1.9,4.6-1.9,8.7v13.5c0,4.2,0.7,7.1,1.9,8.7c1.2,1.6,3.3,2.5,6.4,2.5
			c2.9,0,5-0.9,6.4-2.5c1.2-1.6,1.8-4.6,1.8-8.7v-3.4H323v4.6c0,1.5-0.2,2.6-0.4,2.9c-0.3,0.5-0.7,0.7-1.2,0.7c-0.7,0-1-0.2-1.3-0.6
			c-0.2-0.5-0.3-1.4-0.3-3v-6.6h9.8v-8.1c0-4.2-0.6-7-1.8-8.7C326.4,75,324.4,74.1,321.4,74.1z M323,87h-3.2v-2.7
			c0-1.7,0.1-2.8,0.3-3.2c0.3-0.5,0.7-0.7,1.3-0.7c0.6,0,1,0.2,1.2,0.7c0.2,0.4,0.4,1.5,0.4,3.2V87z M304.5,76.1
			c-0.4-0.7-0.9-1.1-1.4-1.4l-0.1-0.1c-0.7-0.3-1.4-0.5-2.3-0.5c-2.1,0-3.6,0.8-4.5,2.3c-0.9,1.5-1.3,4.7-1.3,9.8v13.1
			c0,3.9,0.5,6.6,1.3,8.3c0.9,1.6,2.3,2.5,4.2,2.5c0.9,0,1.8-0.2,2.6-0.6h0.1c0.7-0.4,1.2-0.9,1.8-1.7v1.8h6.2V63.8h-6.6L304.5,76.1
			z M304.5,100c0,1.5-0.1,2.6-0.3,2.9c-0.2,0.5-0.6,0.7-1.1,0.7c-0.6,0-0.9-0.2-1.1-0.7c-0.3-0.4-0.4-1.4-0.4-2.9V84.1
			c0-1.5,0.1-2.6,0.4-2.9c0.2-0.5,0.6-0.7,1.1-0.7c0.6,0,0.9,0.2,1.1,0.7c0.2,0.4,0.3,1.4,0.3,2.9V100z M284.7,74.1
			c-0.1,0-0.2,0-0.2,0c-2.5,0-4.4,0.8-5.6,2.2c-1.2,1.4-1.9,3.6-1.9,6.5v2.3h6v-1.4c0-1.3,0.1-2.2,0.3-2.6c0.3-0.5,0.7-0.7,1.2-0.7
			c0.6,0,0.9,0.2,1.1,0.7c0.2,0.4,0.3,1.2,0.3,2.6v1.2c-0.5,0.3-0.9,0.5-1.4,0.8c-3.5,1.9-5.6,3.5-6.5,4.8c-0.9,1.4-1.4,3.5-1.4,6.2
			v5.1c0,2.7,0.5,4.7,1.4,6.1c0.9,1.4,2.4,2.2,4.1,2.2c0.9,0,1.7-0.3,2.4-0.7c0,0,0,0,0.1,0c0.7-0.5,1.2-1,1.8-1.8v1.9h6.3V84.1
			c0-3.4-0.7-6-1.9-7.6C289.5,74.9,287.5,74.1,284.7,74.1z M286,100c0,1.6-0.1,2.6-0.3,2.9c-0.2,0.5-0.6,0.7-1.1,0.7
			c-0.6,0-1-0.2-1.2-0.7c-0.2-0.4-0.3-1.3-0.3-2.9v-2.1c0-1.9,0.2-3.3,0.7-4.2c0.2-0.4,0.5-0.9,0.9-1.2c0.4-0.4,0.9-0.9,1.4-1.3V100
			z"/>
	</g>
	<path fill="#910028" d="M218.3,109.6h14.3V91.2h-14.3V109.6z M354.7,91.2v18.4l206.9,0V91.2H354.7z"/>
	<path id="XMLID_2_" d="M210.2,109.4C210.2,109.4,210.2,109.4,210.2,109.4c-49,5.9-97.8,11.8-146.8,17.6c0.2-0.6,0.3-1.3,0.4-1.9
		c-2.2,0.5-4.3-0.6-6.3-1.2c-1.7-0.5-3.2-0.9-4.8-1.4c-0.2-0.6-0.4-1-0.6-1.5c-0.6-0.3-1.4-0.4-2.1-0.7c-0.5,0.3-0.7,1-1.2,1.3
		c-3.2-1-6.2-2-9.4-3c-0.2-0.6-0.4-1.1-0.6-1.7c-0.6-0.2-1.1-0.6-1.6-0.6c-0.6,0-0.6,0.7-1.2,1c-2.7-1.1-5.5-2.1-8.2-3.1
		c0-0.5-0.2-0.8-0.1-1.3c-0.6-0.2-1.3-0.5-1.9-0.7c-0.4-0.1-0.6,0.7-1.1,0.8c-2.5-0.9-4.9-1.9-7.3-2.8c0-0.6-0.1-1-0.1-1.6
		c-0.5-0.4-1.1-0.6-1.7-0.9c-0.6,0.1-0.6,0.7-1.2,0.8c-2.3-1.5-4.9-2.8-7.2-4.3c0.2-1.2,0-1.4-0.7-2c-0.5-0.4-1-0.9-2.1-0.7
		c-1-2.1-2-4.1-3-6.2c0.1-0.6,0.8-0.7,0.9-1.3c0.1-0.7-0.6-1.4-0.5-2.3c-0.2-0.3-0.7-0.1-0.9-0.4c-0.2-1.8-0.4-3.7-0.7-5.5
		c0-0.2,0-0.3,0-0.5c0.4-0.2,0.7-0.5,1.1-0.7c-0.1-0.8,0.4-1.6,0.3-2.3c-0.1-0.6-0.9-0.5-1-1.2c0.6-1.5,1-3.2,1.5-4.8
		c0.5,0,1.1,0,1.3-0.3c0.7-1-0.1-1.5-0.5-2.3c1-1.4,1.7-3,2.8-4.3c0.4,0.1,1,0.1,1.4,0.2c0.4-0.6,1.1-1.1,1.2-1.7
		c-0.2-0.6-0.4-1.1-0.6-1.6c1.6-1.2,3.3-2.4,5-3.6c0.5-0.3,1.3-1.1,1.8-1.2c0.7-0.1,1.5,0.4,2.2,0.4c0.8-0.1,1.1-0.6,1.9-0.7
		c0.2-0.2-0.2-0.9,0.1-1.2c3.2-0.7,6.5-1.5,9.7-2.3c-3.4-0.3-7-0.3-10.4-0.7c0.1-2.4-0.1-4.7,0-7c0.1-1.9,0.8-4,1.4-5.7
		c0.6-1.6,1.3-3.3,2.1-5.1c0.5-1.2,1.5-4.1,2.6-4.5c0.9-0.4,2.2-0.1,3-0.4c0.6-6.6,1.6-13.2,1.5-20.2c-1.6-0.2-3.2-0.3-4.7-0.6
		C24,12.5,24,11,24.1,10C31.2,7,40.1,5.1,48.8,3.4c3-0.6,6.1-1.2,9.3-1.2c6.8,0,13.5,0.4,19.6,1.3C82,4.3,86.6,5.1,91,5.9
		c1.4,0.3,3.7,0.5,4.1,1.2c0.4,0.6,0.1,1.4,0.3,2.3c-1.3,1.2-2.9,2.1-4,3.4c1.1,4.3,2,8.7,3.1,13c2.9,0,5.1,0.7,7.7,1
		c0.3-9.2,0.6-18.4,0.9-27.7c0,0,0.1,0,0.1,0c3.7,1.4,7.7,2.6,11.4,4c-0.1,8.4-0.1,16.8-0.1,25.3c11.9,1.3,25.1,2.8,35.7,5.8
		c2.1,0.6,3.9,1.4,4.1,3.7c0.2,2.3,0,5,0,7.6c0,2.6,0,5.2,0,7.6c4.1-0.1,8.1,0.5,12.2,0.9c9.7,1,19.5,2,29.3,2.9
		C196.6,78.3,201.5,95.7,210.2,109.4z M150.8,42.8c0-1.2,0.3-2.6,0-3.4c-0.8-2.4-4.3-2.2-7.3-2.3c-3-0.1-6.4-0.2-9.2-0.2
		c-6.3,0-13-0.3-18.9-0.1c-0.1,0-0.1,0.1-0.2,0.1c-4.7,0.4-12.8-1.4-14.2,2.1c-0.4,1-0.2,2.6-0.2,4c0,4.5,0,8.3,0,12.8
		c3.1-1.1,7.1-0.8,11.1-1c12.9-0.5,26.1-1,38.8-1.5C150.8,50.1,150.8,46.1,150.8,42.8z M133.9,33c-4.6-0.7-10.8-1.3-15.9-1.8
		c-1.8-0.2-3.7-0.6-5.4-0.5c-0.7,0-1.4,0.3-2.1,0.3c-1.1,0.1-2.6,0.1-3.9,0c-1.2-0.1-2.7-0.1-3.6-0.4c-0.5-0.2-0.6-0.7-1-0.9
		c-0.4-0.2-1.2,0-1.8-0.1c-1.7-0.1-4.1-0.4-5.4-0.3c-5.2,0.2-10.6,0.3-16.2,0.7c-2.4,0.2-5.3,0.2-7.8,0.7c-2.2,0.4-4.7,1.4-5.6,2.9
		c-1.3,2-0.5,5.6-0.9,8.6c2.5-0.1,5-0.3,7.6-0.4c1,5.3,2.1,10.7,3.1,16.2c2.1,0.3,4.3,0.2,6.5,0.3c2.2,0.1,4.5,0.4,6.7,0.2
		c2.9-0.3,5.7-1.5,8.4-1.8c0-6.2-0.7-13.4,1-18.3c0.2-0.7,0.3-1.6,0.7-2.2c1.1-2.1,4.3-2.9,7.7-3C115,32.9,125,33.1,133.9,33z
		 M87.4,25c-0.2-2.2-0.6-4.2-0.9-6.2c-0.1-0.7-0.1-1.5-0.3-2.1c-0.5-1.5-2.8-2.3-4.5-2.9c-2-0.6-4-1-6-1.4c-4.9-1-10.9-2-16.5-1.4
		c0.1,5.9-0.9,12.2-0.1,17.7c0.4-1.3,1.8-1.4,3-1.8c0.5-2.9,3.5-3.2,6.9-3.4c2-0.2,3.9-0.3,6-0.2C79.9,23.5,85,23.2,87.4,25z
		 M70.8,57.7c-0.1-3.1-1-5.4-1.8-7.8c-15.7-0.5-31.7,0.3-47.5,0.4c-0.2,1.1,0,2.4-0.1,3.6c2,0,4,0.1,6.1,0.1c2,0,4.2-0.2,6.1,0.1
		c0.9,0.2,2.2,1,2.9,1.5c0.7,0.5,1.2,1.6,1.8,1.8c0.4,0.1,1.3-0.1,2-0.1c4.8-0.1,9.9-0.3,14.4-0.4C60.5,56.8,65.6,57.2,70.8,57.7z
		 M66.2,71.1c0-2.2,0-4.4-0.1-6.6c-1.5,0-2.8-0.3-4.3-0.3c-0.1-0.4-0.1-0.9-0.3-1.2c-0.7,0-1.2-0.1-1.8-0.2
		c-0.3,0.2-0.2,0.7-0.6,0.8c-3.3-0.3-6.5-0.7-9.8-1.1c-0.3,0.1-0.1-0.5-0.4-0.4c-0.8,0-1.3-0.1-2.1-0.1c-0.4,0-0.2,0.6-0.6,0.5
		c-3.5-0.2-7.3,0-10.9-0.1c-0.1-0.2,0-0.6-0.1-0.8c-0.8,0-1.6,0-2.3,0.1c-0.6,0.8-2.1,0.7-3.4,0.8c-0.9,0.1-1.8,0.3-2.6,0.4
		c-1.8,0.2-3.8,0.3-5.4,0.6c-4.2,0.8-7.7,3.6-10,6.5c-2.4,3.1-3.9,7-5.2,11.3c0,0.1,0,0.2,0.1,0.1c1.5-3.6,3.7-6.6,6.3-9.2
		c0.9-0.9,1.7-1.9,2.7-2.5c0.8-0.5,2-0.8,3-1.2c1.1-0.4,2.2-0.8,3.2-1c3.5-0.7,7.7-0.7,11.7-0.6C45,67.3,56.8,68.9,66.2,71.1z
		 M66,91.4c0.1-1,0-2.2,0.1-3.2c-2.7,0.7-5.4,1.3-7.9,2.1C60.9,90.6,63.4,91,66,91.4z M65.1,115c0.3-4.9,0.6-9.7,0.7-14.8
		c-17.6-3.7-35.4-7.2-52.9-11c1.1-3.5,2.3-7,3.4-10.5c0,0-0.1,0-0.1,0c-3.4,0.4-5,2.6-5.2,6.3c-2.1,0.6-4.3,1.7-5.1,3.4
		c-0.6,1.3-0.5,3.6-0.2,5.5c0.2,1.4,0.4,3.9,1,4.9c0.9,1.5,4.6,2,6.7,2.6C30.5,106,48.2,110.7,65.1,115z M64,78.5
		c-1.2-1.6-3.5-3.3-6.1-3.8c-2.2-0.4-4.7-0.5-7.3-0.8c-4.7-0.5-9.7-1.1-14.8-1.3c-4.7-0.2-9.5-0.7-12.8,0.8c0.1,4,0.5,7.9,0.6,11.9
		c2.9,0.5,5.9,0.9,8.8,1.3c1,0.1,2.1,0.4,3,0.4c1.1-0.1,2.4-0.7,3.6-1C47.4,83.5,56,80.9,64,78.5z M59.3,45c0.2-3.4,0-7-0.4-10
		c-8.5,0.8-19.1,1.8-28.1,2.8c-1.2,0.1-3,0.1-3.8,0.5c-0.6,0.3-1,1.1-1.3,1.8c-1.2,2.1-2.2,4.2-3,6.3C34.9,45.9,47.1,45.4,59.3,45z
		 M48.8,30.1c0.2-4,0.3-8.2-0.4-11.7c-0.3-1.5-0.7-3.3-1.4-4.2c-0.5-0.6-2.5-1.9-3.3-1.6c-3,0.9-6.4,1.8-9.5,2.7
		C34,21,33.6,26.3,33.1,31.5C38.3,31,43.5,30.6,48.8,30.1z M146.7,50.2c0,0.8,0,1.5,0,2.3c-13.6,0-27.2,0-40.9,0c0-0.7,0-1.4,0-2.1
		c0-0.1,0-0.2,0.1-0.2C119.5,50.2,133.1,50.2,146.7,50.2z M146.7,45.7c0,0.8,0,1.5,0,2.3c-13.6,0-27.2,0-40.9,0c0-0.7,0-1.4,0-2.1
		c0-0.1,0-0.2,0.1-0.2C119.5,45.7,133.1,45.7,146.7,45.7z M146.7,43.4c-13.6,0-27.2,0-40.8,0c0.9-3.7,7.3-2,11.3-2.3
		c4.7-0.4,10.7,0,16,0c2.5,0,5.3,0.1,7.8,0.1C143.3,41.3,146.1,41.2,146.7,43.4z"/>
</g>
</svg>
